<svg width="1600" height="1000" viewBox="0 0 1600 1000" fill="none" xmlns="http://www.w3.org/2000/svg">
  <defs>
    <linearGradient id="bg" x1="0" y1="0" x2="1600" y2="1000" gradientUnits="userSpaceOnUse">
      <stop stop-color="#09101D"/>
      <stop offset="1" stop-color="#0C1324"/>
    </linearGradient>
    <radialGradient id="glowA" cx="0" cy="0" r="1" gradientUnits="userSpaceOnUse" gradientTransform="translate(240 120) rotate(35) scale(520 320)">
      <stop stop-color="#4FD8FF" stop-opacity="0.22"/>
      <stop offset="1" stop-color="#4FD8FF" stop-opacity="0"/>
    </radialGradient>
    <radialGradient id="glowB" cx="0" cy="0" r="1" gradientUnits="userSpaceOnUse" gradientTransform="translate(1320 80) rotate(145) scale(420 260)">
      <stop stop-color="#8B8CFF" stop-opacity="0.2"/>
      <stop offset="1" stop-color="#8B8CFF" stop-opacity="0"/>
    </radialGradient>
    <filter id="shadow" x="-20%" y="-20%" width="140%" height="140%">
      <feDropShadow dx="0" dy="18" stdDeviation="24" flood-color="#000000" flood-opacity="0.28"/>
    </filter>
  </defs>

  <rect width="1600" height="1000" fill="url(#bg)"/>
  <rect width="1600" height="1000" fill="url(#glowA)"/>
  <rect width="1600" height="1000" fill="url(#glowB)"/>

  <rect x="28" y="28" width="1544" height="944" rx="32" fill="#0F172A" fill-opacity="0.62" stroke="#9AA4C41F"/>

  <rect x="56" y="56" width="1488" height="170" rx="28" fill="#111A31" fill-opacity="0.9" stroke="#9AA4C42A" filter="url(#shadow)"/>
  <text x="92" y="98" fill="#67E3FF" font-family="Inter, Arial, sans-serif" font-size="15" font-weight="700" letter-spacing="2">NEXT.JS + TYPESCRIPT + MANTINE CONCEPT</text>
  <text x="92" y="150" fill="#EEF3FF" font-family="Inter, Arial, sans-serif" font-size="48" font-weight="800">Case Workspace</text>
  <text x="92" y="188" fill="#97A3C4" font-family="Inter, Arial, sans-serif" font-size="20">Close parity version of the current Orion case list, translated into a cleaner Mantine dashboard shell.</text>

  <rect x="1096" y="90" width="132" height="50" rx="16" fill="#71E2FF"/>
  <text x="1134" y="122" fill="#051522" font-family="Inter, Arial, sans-serif" font-size="18" font-weight="800">New Case</text>
  <rect x="1242" y="90" width="124" height="50" rx="16" fill="#18233F" stroke="#9AA4C42A"/>
  <text x="1273" y="122" fill="#EEF3FF" font-family="Inter, Arial, sans-serif" font-size="17" font-weight="700">Demo Case</text>
  <rect x="1380" y="90" width="116" height="50" rx="16" fill="#18233F" stroke="#9AA4C42A"/>
  <text x="1417" y="122" fill="#EEF3FF" font-family="Inter, Arial, sans-serif" font-size="17" font-weight="700">Settings</text>

  <rect x="56" y="254" width="952" height="668" rx="26" fill="#121A31" fill-opacity="0.92" stroke="#9AA4C42A" filter="url(#shadow)"/>
  <text x="86" y="300" fill="#67E3FF" font-family="Inter, Arial, sans-serif" font-size="14" font-weight="700" letter-spacing="2">CASE MANAGEMENT</text>
  <text x="86" y="340" fill="#EEF3FF" font-family="Inter, Arial, sans-serif" font-size="32" font-weight="800">Persons of Interest</text>

  <rect x="86" y="370" width="360" height="54" rx="16" fill="#0D1427" stroke="#9AA4C424"/>
  <text x="110" y="404" fill="#7080A8" font-family="Inter, Arial, sans-serif" font-size="18">Search case title or location</text>
  <rect x="462" y="370" width="154" height="54" rx="16" fill="#0D1427" stroke="#9AA4C424"/>
  <text x="499" y="404" fill="#D7DEEF" font-family="Inter, Arial, sans-serif" font-size="17">All Status</text>
  <rect x="632" y="370" width="154" height="54" rx="16" fill="#0D1427" stroke="#9AA4C424"/>
  <text x="664" y="404" fill="#D7DEEF" font-family="Inter, Arial, sans-serif" font-size="17">Threat</text>
  <rect x="802" y="370" width="176" height="54" rx="16" fill="#0D1427" stroke="#9AA4C424"/>
  <text x="830" y="404" fill="#D7DEEF" font-family="Inter, Arial, sans-serif" font-size="17">Last Edited</text>

  <g>
    <rect x="86" y="446" width="148" height="42" rx="14" fill="#11263A" stroke="#4FD8FF52"/>
    <text x="116" y="473" fill="#7BE7FF" font-family="Inter, Arial, sans-serif" font-size="15" font-weight="700">Live Monitoring</text>
    <rect x="248" y="446" width="124" height="42" rx="14" fill="#151E34" stroke="#9AA4C424"/>
    <text x="283" y="473" fill="#A2AFCD" font-family="Inter, Arial, sans-serif" font-size="15" font-weight="700">Geo Linked</text>
    <rect x="386" y="446" width="154" height="42" rx="14" fill="#151E34" stroke="#9AA4C424"/>
    <text x="417" y="473" fill="#A2AFCD" font-family="Inter, Arial, sans-serif" font-size="15" font-weight="700">Recent Escalation</text>
    <rect x="554" y="446" width="130" height="42" rx="14" fill="#151E34" stroke="#9AA4C424"/>
    <text x="591" y="473" fill="#A2AFCD" font-family="Inter, Arial, sans-serif" font-size="15" font-weight="700">Needs Review</text>
  </g>

  <g>
    <rect x="86" y="514" width="438" height="170" rx="22" fill="#17213B" stroke="#9AA4C424"/>
    <text x="112" y="556" fill="#EEF3FF" font-family="Inter, Arial, sans-serif" font-size="28" font-weight="800">Mason Hale</text>
    <rect x="386" y="528" width="114" height="34" rx="17" fill="#39202A"/>
    <text x="412" y="550" fill="#FF9CAB" font-family="Inter, Arial, sans-serif" font-size="14" font-weight="800">HIGH THREAT</text>
    <rect x="112" y="576" width="102" height="30" rx="15" fill="#243056"/>
    <text x="138" y="596" fill="#B4C2FF" font-family="Inter, Arial, sans-serif" font-size="13" font-weight="800">WATCHLIST</text>
    <rect x="224" y="576" width="98" height="30" rx="15" fill="#342B1C"/>
    <text x="250" y="596" fill="#F4D08D" font-family="Inter, Arial, sans-serif" font-size="13" font-weight="800">PHOENIX</text>
    <text x="112" y="632" fill="#A7B2CD" font-family="Inter, Arial, sans-serif" font-size="18">Repeated violent rhetoric, platform migration patterns,</text>
    <text x="112" y="658" fill="#A7B2CD" font-family="Inter, Arial, sans-serif" font-size="18">and cross-platform handle overlap suggest elevated risk.</text>
    <text x="112" y="716" fill="#7F8BAA" font-family="Inter, Arial, sans-serif" font-size="15">Last activity 14m ago</text>
    <text x="390" y="716" fill="#7F8BAA" font-family="Inter, Arial, sans-serif" font-size="15">18 linked profiles</text>
  </g>

  <g>
    <rect x="546" y="514" width="438" height="170" rx="22" fill="#17213B" stroke="#9AA4C424"/>
    <text x="572" y="556" fill="#EEF3FF" font-family="Inter, Arial, sans-serif" font-size="28" font-weight="800">Avery Quinn</text>
    <rect x="856" y="528" width="104" height="34" rx="17" fill="#342B1C"/>
    <text x="885" y="550" fill="#F6CE84" font-family="Inter, Arial, sans-serif" font-size="14" font-weight="800">MODERATE</text>
    <rect x="572" y="576" width="164" height="30" rx="15" fill="#243056"/>
    <text x="600" y="596" fill="#B4C2FF" font-family="Inter, Arial, sans-serif" font-size="13" font-weight="800">UNDER INVESTIGATION</text>
    <rect x="746" y="576" width="90" height="30" rx="15" fill="#342B1C"/>
    <text x="773" y="596" fill="#F4D08D" font-family="Inter, Arial, sans-serif" font-size="13" font-weight="800">AUSTIN</text>
    <text x="572" y="632" fill="#A7B2CD" font-family="Inter, Arial, sans-serif" font-size="18">Strong footprint coverage across GitHub, Reddit, and</text>
    <text x="572" y="658" fill="#A7B2CD" font-family="Inter, Arial, sans-serif" font-size="18">Telegram mirrors. Needs analyst confirmation.</text>
    <text x="572" y="716" fill="#7F8BAA" font-family="Inter, Arial, sans-serif" font-size="15">Last activity 52m ago</text>
    <text x="850" y="716" fill="#7F8BAA" font-family="Inter, Arial, sans-serif" font-size="15">11 linked profiles</text>
  </g>

  <g>
    <rect x="86" y="704" width="438" height="170" rx="22" fill="#17213B" stroke="#9AA4C424"/>
    <text x="112" y="746" fill="#EEF3FF" font-family="Inter, Arial, sans-serif" font-size="28" font-weight="800">Jordan Pike</text>
    <rect x="390" y="718" width="102" height="34" rx="17" fill="#173328"/>
    <text x="422" y="740" fill="#8DE4BE" font-family="Inter, Arial, sans-serif" font-size="14" font-weight="800">LOW</text>
    <rect x="112" y="766" width="72" height="30" rx="15" fill="#243056"/>
    <text x="132" y="786" fill="#B4C2FF" font-family="Inter, Arial, sans-serif" font-size="13" font-weight="800">OPEN</text>
    <rect x="194" y="766" width="106" height="30" rx="15" fill="#342B1C"/>
    <text x="220" y="786" fill="#F4D08D" font-family="Inter, Arial, sans-serif" font-size="13" font-weight="800">COLUMBUS</text>
    <text x="112" y="822" fill="#A7B2CD" font-family="Inter, Arial, sans-serif" font-size="18">Mostly collection-ready. Behavioral baseline is stable,</text>
    <text x="112" y="848" fill="#A7B2CD" font-family="Inter, Arial, sans-serif" font-size="18">but location confidence remains weak.</text>
  </g>

  <g>
    <rect x="546" y="704" width="438" height="170" rx="22" fill="#17213B" stroke="#9AA4C424"/>
    <text x="572" y="746" fill="#EEF3FF" font-family="Inter, Arial, sans-serif" font-size="28" font-weight="800">Riley Voss</text>
    <rect x="842" y="718" width="118" height="34" rx="17" fill="#39202A"/>
    <text x="868" y="740" fill="#FF9CAB" font-family="Inter, Arial, sans-serif" font-size="14" font-weight="800">VERY HIGH</text>
    <rect x="572" y="766" width="102" height="30" rx="15" fill="#243056"/>
    <text x="598" y="786" fill="#B4C2FF" font-family="Inter, Arial, sans-serif" font-size="13" font-weight="800">WATCHLIST</text>
    <rect x="684" y="766" width="90" height="30" rx="15" fill="#342B1C"/>
    <text x="710" y="786" fill="#F4D08D" font-family="Inter, Arial, sans-serif" font-size="13" font-weight="800">SEATTLE</text>
    <text x="572" y="822" fill="#A7B2CD" font-family="Inter, Arial, sans-serif" font-size="18">Recent acceleration in posting cadence and new</text>
    <text x="572" y="848" fill="#A7B2CD" font-family="Inter, Arial, sans-serif" font-size="18">entity matches across known affiliation clusters.</text>
  </g>

  <rect x="1034" y="254" width="510" height="318" rx="26" fill="#121A31" fill-opacity="0.92" stroke="#9AA4C42A" filter="url(#shadow)"/>
  <text x="1062" y="298" fill="#67E3FF" font-family="Inter, Arial, sans-serif" font-size="14" font-weight="700" letter-spacing="2">SESSION SUMMARY</text>
  <text x="1062" y="338" fill="#EEF3FF" font-family="Inter, Arial, sans-serif" font-size="30" font-weight="800">Operational Snapshot</text>

  <rect x="1062" y="366" width="204" height="84" rx="18" fill="#17213B" stroke="#9AA4C424"/>
  <text x="1084" y="394" fill="#97A3C4" font-family="Inter, Arial, sans-serif" font-size="13" font-weight="700" letter-spacing="1">OPEN CASES</text>
  <text x="1084" y="430" fill="#EEF3FF" font-family="Inter, Arial, sans-serif" font-size="36" font-weight="800">24</text>
  <rect x="1284" y="366" width="204" height="84" rx="18" fill="#17213B" stroke="#9AA4C424"/>
  <text x="1306" y="394" fill="#97A3C4" font-family="Inter, Arial, sans-serif" font-size="13" font-weight="700" letter-spacing="1">HIGH THREAT</text>
  <text x="1306" y="430" fill="#EEF3FF" font-family="Inter, Arial, sans-serif" font-size="36" font-weight="800">7</text>
  <rect x="1062" y="466" width="204" height="84" rx="18" fill="#17213B" stroke="#9AA4C424"/>
  <text x="1084" y="494" fill="#97A3C4" font-family="Inter, Arial, sans-serif" font-size="13" font-weight="700" letter-spacing="1">NEW LEADS</text>
  <text x="1084" y="530" fill="#EEF3FF" font-family="Inter, Arial, sans-serif" font-size="36" font-weight="800">138</text>
  <rect x="1284" y="466" width="204" height="84" rx="18" fill="#17213B" stroke="#9AA4C424"/>
  <text x="1306" y="494" fill="#97A3C4" font-family="Inter, Arial, sans-serif" font-size="13" font-weight="700" letter-spacing="1">ACTIVE ANALYSTS</text>
  <text x="1306" y="530" fill="#EEF3FF" font-family="Inter, Arial, sans-serif" font-size="36" font-weight="800">5</text>

  <rect x="1034" y="594" width="510" height="328" rx="26" fill="#121A31" fill-opacity="0.92" stroke="#9AA4C42A" filter="url(#shadow)"/>
  <text x="1062" y="638" fill="#67E3FF" font-family="Inter, Arial, sans-serif" font-size="14" font-weight="700" letter-spacing="2">ANALYST FEED</text>
  <text x="1062" y="678" fill="#EEF3FF" font-family="Inter, Arial, sans-serif" font-size="30" font-weight="800">Recent Signals</text>

  <g>
    <line x1="1062" y1="746" x2="1516" y2="746" stroke="#9AA4C418"/>
    <text x="1062" y="720" fill="#EEF3FF" font-family="Inter, Arial, sans-serif" font-size="20" font-weight="700">Threat score increased</text>
    <text x="1062" y="742" fill="#97A3C4" font-family="Inter, Arial, sans-serif" font-size="16">Mason Hale moved from Substantial to High Threat after entity-graph merge.</text>
    <rect x="1440" y="700" width="76" height="28" rx="14" fill="#39202A"/>
    <text x="1462" y="719" fill="#FF9CAB" font-family="Inter, Arial, sans-serif" font-size="13" font-weight="800">12m</text>
  </g>
  <g>
    <line x1="1062" y1="820" x2="1516" y2="820" stroke="#9AA4C418"/>
    <text x="1062" y="794" fill="#EEF3FF" font-family="Inter, Arial, sans-serif" font-size="20" font-weight="700">New selector pivot</text>
    <text x="1062" y="816" fill="#97A3C4" font-family="Inter, Arial, sans-serif" font-size="16">Telegram alias matched an existing GitHub email from a prior recon run.</text>
    <rect x="1440" y="774" width="76" height="28" rx="14" fill="#342B1C"/>
    <text x="1462" y="793" fill="#F6CE84" font-family="Inter, Arial, sans-serif" font-size="13" font-weight="800">24m</text>
  </g>
  <g>
    <text x="1062" y="868" fill="#EEF3FF" font-family="Inter, Arial, sans-serif" font-size="20" font-weight="700">Case export ready</text>
    <text x="1062" y="890" fill="#97A3C4" font-family="Inter, Arial, sans-serif" font-size="16">Avery Quinn briefing packet completed with media and timeline sections.</text>
    <rect x="1440" y="848" width="76" height="28" rx="14" fill="#173328"/>
    <text x="1468" y="867" fill="#8DE4BE" font-family="Inter, Arial, sans-serif" font-size="13" font-weight="800">1h</text>
  </g>
</svg>
